<svg id="Layer_1" data-name="Layer 1" xmlns="http://www.w3.org/2000/svg" viewBox="0 0 60.72 53.25"><defs><style>.cls-1{fill:#00a966;}.cls-2{fill:none;stroke:#1d4893;stroke-miterlimit:10;stroke-width:3.25px;}</style></defs><title>shieldQuestionMark</title><path class="cls-1" d="M679.4,382.74l.33-.29c4.15-.35,5.62-1.36,5.62-2.86v-.07c0-1.22-1-2-2.72-2a8.32,8.32,0,0,0-5.23,2.36l-3.59-4.69a12.6,12.6,0,0,1,9.28-3.77c5.27,0,9,2.83,9,7.53v.07c0,4.51-3,6.41-7,7.42l-.43,2.29h-4.3Zm-.57,8.1h7.06v6.09h-7.06Z" transform="translate(-652.58 -357.6)"/><path class="cls-2" d="M698.82,359.22H654.2v37.15a12.88,12.88,0,0,0,12.85,12.85h44.62V372.07a12.88,12.88,0,0,0-12.85-12.85" transform="translate(-652.58 -357.6)"/></svg>