<svg id="Layer_1" data-name="Layer 1" xmlns="http://www.w3.org/2000/svg" viewBox="0 0 60.25 60.25"><defs><style>.cls-1{fill:#204391;}.cls-2{fill:#45b76c;}</style></defs><title>user-o</title><path class="cls-1" d="M733.73,414.68a30,30,0,0,0-6.2-9.29c-.09-.1-.17-.2-.26-.29-.68-.68-1.4-1.33-2.14-1.94a29.64,29.64,0,0,0-7.43-4.51,30.21,30.21,0,0,0-23.46,0,29.64,29.64,0,0,0-7.43,4.51c-.74.61-1.46,1.26-2.14,1.94a30.14,30.14,0,0,0-6.46,33,30.38,30.38,0,0,0,2.92,5.31,29.94,29.94,0,0,0,3.54,4.27,28.22,28.22,0,0,0,2.15,2,30.09,30.09,0,0,0,38.3,0,28.22,28.22,0,0,0,2.15-2l.26-.28a30.11,30.11,0,0,0,6.2-32.75Zm-6.2,26.89a26.5,26.5,0,0,1-9.13,8.09,26.43,26.43,0,1,1,9.13-8.09Z" transform="translate(-675.84 -396.28)"/><path class="cls-2" d="M710.45,429.38l-.19-.05v-2.7a11.41,11.41,0,0,0,2.82-5.14c1.09,0,1.23-1.15,1.59-2.44.3-1.05-.1-2.44-1.22-2.44h0l.16-2.76c0-.22,0-.44,0-.66,0-3.68-3.41-6.66-7.62-6.66h0c-4.21,0-7.61,3-7.61,6.66q0,.33,0,.66l.16,2.76h0c-1.12,0-1.51,1.39-1.22,2.44.36,1.29.5,2.41,1.59,2.44a11.51,11.51,0,0,0,2.82,5.14v2.7l-.19.05C695.55,431,691,435.45,691,437.81v4.48h29.94v-4.48C720.94,435.45,716.39,431,710.45,429.38Z" transform="translate(-675.84 -396.28)"/></svg>